HIERARCHY
ROOT pelvis
{
  OFFSET 0 0 0
  CHANNELS 6 Xposition Yposition Zposition Zrotation Xrotation Yrotation
  JOINT pelvis_right_femur
  {
    OFFSET -11.43119 -3.542788 0.2090856
    CHANNELS 3 Zrotation Xrotation Yrotation
    JOINT right_femur_tibia
    {
      OFFSET -1.028693 -40.73281 5
      CHANNELS 3 Zrotation Xrotation Yrotation
      JOINT right_tibia_foot
      {
        OFFSET -0.5013517 -42.05707 -5
        CHANNELS 3 Zrotation Xrotation Yrotation
        End Site
        {
          OFFSET 0 -5 10
        }
      }
    }
  }
  JOINT pelvis_left_femur
  {
    OFFSET 11.43119 -3.542788 0.2090856
    CHANNELS 3 Zrotation Xrotation Yrotation
    JOINT left_femur_tibia
    {
      OFFSET 1.028693 -40.73281 5
      CHANNELS 3 Zrotation Xrotation Yrotation
      JOINT left_tibia_foot
      {
        OFFSET 0.3200228 -42.98253 -5
        CHANNELS 3 Zrotation Xrotation Yrotation
        End Site
        {
          OFFSET 0 -5 10
        }
      }
    }
  }
  JOINT pelvis_spine1
  {
    OFFSET 0 8.64413 -3.209807
    CHANNELS 3 Zrotation Xrotation Yrotation
    JOINT spine1
    {
      OFFSET 0 29.53957 -1.762685
      CHANNELS 3 Zrotation Xrotation Yrotation
      JOINT spine2
      {
        OFFSET 0 16.36153 -0.1422377
        CHANNELS 3 Zrotation Xrotation Yrotation
        JOINT neck
        {
          OFFSET 0 11.60093 5
          CHANNELS 3 Zrotation Xrotation Yrotation
          End Site
          {
            OFFSET 0 20 0
          }
        }
      }
      JOINT right_manubrium
      {
        OFFSET -4.671311 15.89868 4
        CHANNELS 3 Zrotation Xrotation Yrotation
        JOINT right_clavicle
        {
          OFFSET -13.601 1.573642 -2.74176
          CHANNELS 3 Zrotation Xrotation Yrotation
          JOINT right_humerus
          {
            OFFSET -0.06331682 -27.72702 2.252146
            CHANNELS 3 Zrotation Xrotation Yrotation
            JOINT right_radius
            {
              OFFSET -0.5696302 -23.92083 0.4042105
              CHANNELS 3 Zrotation Xrotation Yrotation
              End Site
              {
                OFFSET 0 -15 0
              }
            }
          }
        }
      }
      JOINT left_manubrium
      {
        OFFSET 4.671311 15.89868 4
        CHANNELS 3 Zrotation Xrotation Yrotation
        JOINT left_clavicle
        {
          OFFSET 13.601 1.573642 -2.74176
          CHANNELS 3 Zrotation Xrotation Yrotation
          JOINT left_humerus
          {
            OFFSET 0.000209614 -29.01858 1.101395
            CHANNELS 3 Zrotation Xrotation Yrotation
            JOINT left_radius
            {
              OFFSET -0.2288314 -24.59216 1.790347
              CHANNELS 3 Zrotation Xrotation Yrotation
              End Site
              {
                OFFSET 0 -15 0
              }
            }
          }
        }
      }
    }
  }
}
MOTION
Frames: 15
Frame Time: 0.0416666666667
0 48.05195 0 -3.554953 -21.66993 -1.264758 -50.8828 -59.03454 -38.63315 -180 81.42505 -180 10.99725 2.082871 1.982484 62.75824 -51.05263 50.69388 -180 72.09452 -180 -6.97027 -7.343295 -12.63491 0.4510865 21.61945 1.704897 7.046225 15.54929 -8.781099 -13.29006 9.601507 1.421436 10.61716 -25.9354 -8.560725 19.06886 -10.81351 26.24541 -63.04009 -27.17262 17.54805 0 -70.65758 0 7.379478 -14.46954 24.62989 -27.42405 -34.6184 -3.481537 48.59095 -21.44191 -30.95526 0 -74.88723 0 -18.2296 16.39872 -41.06322
-0.04725759 48.06624 -0.0615649 -3.619847 -21.63355 -1.155592 -50.93701 -58.93178 -38.84987 -180 81.48537 -180 11.02061 2.099312 1.992388 62.77434 -51.28573 50.60405 -180 72.1583 -180 -6.926779 -7.285758 -12.55018 0.2862616 21.8844 1.794962 7.587414 15.67237 -9.16526 -12.92476 9.862869 -0.3198361 11.16282 -26.23326 -10.98912 19.74472 -11.90778 25.5009 -63.45052 -24.66603 14.32182 0 -71.35678 0 5.089909 -17.2336 23.76629 -27.30397 -34.841 -3.154926 48.67143 -21.49625 -30.91207 0 -75.38055 0 -18.22292 16.2373 -40.91585
-0.04228877 48.06691 -0.1366806 -3.848741 -21.63681 -1.054345 -50.91302 -58.64744 -39.1732 -180 81.66026 -180 11.03685 2.150076 2.090934 62.89123 -51.63001 50.46031 -180 72.15737 -180 -6.879967 -7.255468 -12.36912 0.3343633 22.24614 1.673205 8.416671 15.67629 -9.705615 -12.89474 10.27927 -1.780177 11.56413 -26.5971 -13.21738 21.38978 -14.31767 24.50146 -64.12654 -21.81079 9.168955 0 -71.85126 0 1.764214 -20.34514 22.27913 -27.42578 -35.14389 -2.628589 48.76936 -21.41509 -30.72843 0 -75.98029 0 -18.17251 16.02926 -40.74405
0.1895704 48.19796 -0.1493399 -4.315081 -21.55388 -0.9400899 -50.92087 -58.06285 -39.63832 -180 81.99785 -180 11.02494 2.238536 2.312315 62.92401 -52.12362 50.25704 -180 72.08114 -180 -6.851099 -7.270755 -12.11804 0.8793428 22.68553 1.294038 9.431112 15.49738 -10.2874 -13.08649 10.77203 -2.845787 11.85147 -27.0537 -15.00264 23.80077 -18.22911 23.85838 -65.26 -18.83549 2.290277 0 -70.71213 0 -2.231226 -23.0119 19.97179 -27.88546 -35.31625 -2.083827 48.78207 -21.10685 -30.56096 0 -76.73812 0 -18.10716 15.7608 -40.55529
0.3298918 48.23826 -0.1342253 -4.56106 -21.30505 -0.944594 -51.44699 -57.76542 -40.54269 -180 82.19593 -180 11.01471 2.291636 2.611958 63.09301 -52.54772 50.33796 -180 71.97915 -180 -6.848794 -7.313849 -11.90682 1.299217 23.2075 1.053823 10.22102 14.7446 -10.53808 -13.26763 11.38207 -3.61929 12.11154 -27.42896 -16.39323 26.47516 -23.69625 24.36674 -67.0778 -16.28964 -5.706288 0 -67.35002 0 -6.252712 -24.59714 16.9553 -28.2546 -35.27735 -1.530152 48.86746 -20.60012 -30.46856 0 -77.61299 0 -18.07088 15.42366 -40.34662
0.430793 48.31435 -0.04363364 -4.601527 -20.86585 -0.9993562 -52.39159 -57.63147 -41.76267 -180 82.28028 -180 11.01373 2.276722 2.950919 63.29143 -52.78462 50.64156 -180 71.92672 -180 -6.872346 -7.383973 -11.79804 1.909205 23.71849 0.9612615 10.42468 13.72061 -10.49545 -13.32651 11.88174 -4.211839 12.42306 -27.78135 -17.46516 28.50146 -29.59013 25.89155 -69.44461 -13.9516 -13.31131 0 -61.15593 0 -9.361354 -24.70777 13.56635 -28.50643 -35.05091 -1.053111 49.07691 -19.96858 -30.48596 0 -78.58456 0 -18.09064 15.00251 -40.11896
0.3643216 48.43115 0.1497413 -4.377634 -20.35123 -0.9862536 -53.52443 -57.60761 -43.02088 -180 82.19895 -180 11.01725 2.183284 3.29393 63.46876 -52.79759 51.07199 -180 72.00231 -180 -6.90806 -7.427797 -11.77542 2.611121 24.02103 1.009282 9.868654 13.1013 -10.24338 -13.26702 12.04514 -4.739449 12.79274 -28.20418 -18.34364 28.80814 -33.9667 27.52747 -71.61547 -11.76113 -18.28793 0 -52.91584 0 -10.5731 -23.62192 10.57641 -28.54966 -34.88707 -0.819075 49.49211 -19.43449 -30.45064 0 -79.58611 0 -18.14052 14.50407 -39.85806
0.1879695 48.51674 0.3821839 -4.02344 -19.86891 -0.9893695 -54.64382 -57.72124 -44.12951 -180 81.95723 -180 11.03986 2.038742 3.584325 63.71825 -52.64207 51.57854 -180 72.06194 -180 -6.938366 -7.422531 -11.81641 3.186147 24.08391 1.073417 9.029672 13.03716 -9.964249 -13.22045 11.96588 -5.17734 13.1115 -28.59077 -19.06944 27.77169 -36.51782 28.67578 -73.24449 -10.10498 -20.53729 0 -44.69283 0 -10.05423 -22.19411 8.395996 -28.42065 -34.8583 -0.7299643 50.0757 -18.98671 -30.25527 0 -80.57167 0 -18.188 13.94292 -39.55347
-0.02339248 48.49949 0.6090103 -3.623602 -19.48451 -1.061991 -55.63273 -58.04597 -44.9527 -180 81.60222 -180 11.07501 1.876635 3.793908 64.00708 -52.44759 52.10495 -180 72.04405 -180 -6.969372 -7.389272 -11.87654 3.46711 23.99443 1.124612 8.226503 13.27014 -9.776596 -13.26647 11.82186 -5.436327 13.29115 -28.79086 -19.57749 26.08038 -37.85692 29.32656 -74.49479 -9.228247 -20.9847 0 -37.83341 0 -8.435295 -20.98766 7.014599 -28.18125 -34.91714 -0.6802721 50.68776 -18.60334 -29.94631 0 -81.55774 0 -18.21807 13.33275 -39.20178
-0.2403061 48.42153 0.7583254 -3.069143 -19.12726 -1.197639 -56.72177 -58.63172 -45.70352 -180 81.19501 -180 11.12628 1.722778 3.879035 64.13984 -52.29179 52.59073 -180 72.02371 -180 -7.023093 -7.351274 -11.88086 3.561609 23.94174 1.26855 7.487448 13.57601 -9.546408 -13.50773 11.55974 -5.514905 13.26577 -28.84875 -19.90018 24.24686 -38.32627 29.70676 -75.22952 -8.891732 -20.33663 0 -32.12393 0 -6.228088 -19.95917 6.052449 -27.93021 -35.05693 -0.6649299 51.23653 -18.27224 -29.54111 0 -82.43882 0 -18.21967 12.70179 -38.7878
-0.5036358 48.21196 0.7472098 -2.314708 -18.73868 -1.449158 -58.12077 -59.57618 -46.60167 -180 80.80604 -180 11.18304 1.596869 3.893003 64.16481 -52.2425 53.08657 -180 72.05793 -180 -7.103539 -7.328272 -11.81089 3.386065 24.05415 1.56995 6.920183 13.65385 -9.219792 -13.91802 11.26154 -5.460968 13.03941 -28.74734 -20.09655 22.80426 -38.53173 30.06749 -75.7023 -8.882589 -19.44745 0 -27.67605 0 -3.972435 -19.18701 5.170635 -27.61971 -35.26769 -0.5815812 51.71259 -17.99881 -29.07105 0 -83.10092 0 -18.20131 12.06767 -38.2931
-0.5443946 48.28506 0.7539683 -1.884612 -18.34384 -1.616005 -58.87452 -60.17633 -47.0167 -180 80.71607 -180 11.21339 1.543572 3.852614 63.88126 -52.31289 53.27606 -180 72.18386 -180 -7.180061 -7.351454 -11.67434 3.430489 23.82107 1.813736 6.743516 14.06139 -9.101268 -14.1828 11.13341 -5.331338 12.83013 -28.58654 -20.08654 21.91302 -38.4867 30.63897 -75.99366 -9.276152 -18.43268 0 -24.64539 0 -2.151776 -18.82159 4.490135 -27.70398 -35.38105 -0.7326338 51.89817 -17.77555 -28.80883 0 -83.44386 0 -18.21009 11.46209 -37.71515
-0.5475436 48.30624 0.7190687 -1.607446 -18.02498 -1.71753 -59.44011 -60.63988 -47.31202 -180 80.70351 -180 11.24918 1.518781 3.783321 63.71915 -52.46041 53.44647 -180 72.27878 -180 -7.248217 -7.412409 -11.53379 3.560213 23.72335 1.975681 6.761573 14.24037 -8.943018 -14.43701 10.95124 -5.11887 12.59133 -28.45474 -19.91814 21.50669 -38.60634 31.28838 -76.42765 -9.560356 -17.85256 0 -22.15961 0 -1.088622 -18.56125 3.596055 -27.80453 -35.4405 -0.8710274 51.96777 -17.67672 -28.73301 0 -83.61354 0 -18.26246 10.85088 -37.05323
-0.5497715 48.27499 0.7003606 -1.407389 -17.82574 -1.704854 -59.89739 -60.92607 -47.54049 -180 80.65602 -180 11.28852 1.491869 3.716211 63.63965 -52.60723 53.60128 -180 72.30737 -180 -7.301597 -7.480858 -11.4468 3.661326 23.63021 2.126992 6.845696 14.32901 -8.78048 -14.72436 10.66111 -4.76756 12.32565 -28.36882 -19.5446 21.32567 -38.68708 31.88252 -76.85986 -9.783087 -17.44228 0 -20.22178 0 -0.5293875 -18.3896 2.590938 -27.9201 -35.45146 -1.074342 51.99172 -17.71865 -28.84552 0 -83.5596 0 -18.37156 10.24531 -36.30089
-0.555404 48.23807 0.7330091 -1.272471 -17.71755 -1.602286 -60.22182 -61.03265 -47.6769 -180 80.55661 -180 11.32971 1.44521 3.660534 63.62634 -52.6843 53.7483 -180 72.28958 -180 -7.331488 -7.531593 -11.46193 3.733905 23.44352 2.280181 6.852143 14.38144 -8.631225 -15.09308 10.23405 -4.190179 12.02906 -28.33682 -18.87309 21.12198 -38.60686 32.22681 -77.20681 -9.977718 -17.01473 0 -18.94133 0 -0.2094927 -18.32463 1.578254 -28.06237 -35.4075 -1.298037 51.98955 -17.8573 -29.10978 0 -83.31074 0 -18.53649 9.625215 -35.44715
